<svg xmlns="http://www.w3.org/2000/svg" xmlns:xlink="http://www.w3.org/1999/xlink" id="Layer_1" x="0" y="0" version="1.1" viewBox="0 0 180 180" xml:space="preserve" style="enable-background:new 0 0 180 180"><style type="text/css">.st0{fill:#b63c41}.st1,.st2{opacity:.3;fill:#fff;enable-background:new}.st2{opacity:.2;fill:#040000}.st3{fill:#1a1a1a}</style><title>w</title><g id="Layer_2"><g id="Layer_1-2"><path d="M127.9,63.3c9.3,3.4,14.2,9,15.4,18.1v0.1l2.2,25.5l0.1,1.7l-1.5,0.8c-5.9,3.1-12.6,4.7-19.3,4.7h-1.8 l-0.6-1.7l-6.6-18.6h-6.2l-3.7,21.4l-0.4,1.8l-1.9,0.3c-4.5,0.6-9,1-13.6,1.1c-4.5-0.1-9.1-0.5-13.6-1.1l-1.9-0.3l-0.3-1.8 l-3.7-21.4h-6.3l-6.6,18.6l-0.6,1.7h-1.8c-6.7,0-13.3-1.6-19.2-4.7l-1.5-0.8l0.1-1.7l2.1-25.4v-0.1c1.3-9.1,6-14.8,15.4-18.1" class="st0"/><path d="M51.5,113.9c-13.8-9.3-8.6-44.1-8.6-44.1c-8.8,2.8-8.6,40.1-8.6,40.1S55.5,116.5,51.5,113.9z" class="st1"/><path d="M94.2,116.6c-15.4-2.8-21.4-24.8-21.4-24.8c1,16.4,4.5,25.9,4.5,25.9S98.6,117.4,94.2,116.6z" class="st1"/><path d="M135.4,112c-10-5.2-17.7-20.2-17.7-20.2c-0.6,5.3,7,24,7,24S139.1,114,135.4,112z" class="st1"/><path d="M127.2,61.9c0,0,4.7,4.4,6.5,4.3c13.7-0.3,11.2,41.4,11.2,41.4l-8.2,5c-2.3-13.3-5.1-33.9-11.8-39.6 c-6.1-5.2-9.8-6.5-10.7-6.7c-1.8,0.2-3.6,0.4-5.7,0.6c-18.7,1.7-45.8-3.6-45.8-3.6" class="st2"/><path d="M54.1,59.1L54.1,59.1c11.9,1.8,23.8,2.8,35.8,3.2c12-0.3,23.9-1.4,35.8-3.2v-0.4l5.1,1.2v0.1 c9.2,3.9,13.9,10.3,15.2,20.2v0.3l2.3,26.4l0.3,3.4l-3,1.6c-6.3,3.5-13.4,5.3-20.6,5.2h-4.1L120,113l-3.8-17h-6.8l-2.2,19.6 l-0.4,3.9l-3.9,0.6c-4.3,0.7-8.6,1.1-12.9,1.2c-4.3-0.1-8.6-0.5-12.9-1.2l-3.9-0.6l-0.4-3.9l-2.2-19.7h-6.7l-3.8,17L59,117h-4.1 c-7.2,0-14.2-1.8-20.5-5.2l-3-1.6l0.2-3.4l2.1-26.4v-0.3c1.3-9.9,6.1-16.2,15.2-20.2v-0.1L54.1,59.1L54.1,59.1z M38.9,80.8 L38.9,80.8l-2.2,26.4c5.6,3,11.8,4.6,18.2,4.6l4.7-21.1h15.6l2.7,24.3c4,0.6,8,1,12.1,1.1c4-0.1,8.1-0.4,12-1.1l2.8-24.3h15.6 l4.6,21.1c6.3,0,12.6-1.5,18.2-4.6L141,80.8c-1-7.5-4.3-13.1-13.6-16.7c-12.4,1.9-24.9,3-37.4,3.3c-12.5-0.3-25-1.4-37.4-3.3 C43.2,67.7,39.9,73.3,38.9,80.8z" class="st3"/></g></g></svg>