<svg xmlns="http://www.w3.org/2000/svg" xmlns:xlink="http://www.w3.org/1999/xlink" id="Layer_1" x="0" y="0" version="1.1" viewBox="0 0 180 180" xml:space="preserve" style="enable-background:new 0 0 180 180"><style type="text/css">.st0{fill:#b63c41}.st1{fill:none;stroke:#040000;stroke-width:2.5;stroke-miterlimit:10}</style><title>w</title><g id="Layer_2"><g id="Layer_1-2"><polygon points="29.8 116.7 55.2 116.7 55.2 102.5 77.3 102.5 77.3 116.7 102.7 116.7 102.7 102.5 124.9 102.5 124.9 116.7 150.2 116.7 150.2 80.7 126.9 63.3 53.1 63.3 29.8 80.7" class="st0"/><line x1="29.8" x2="150.2" y1="81.3" y2="81.3" class="st1"/><polygon points="126.9 63.3 150.2 80.7 150.2 116.7 124.9 116.7 124.9 102.5 102.7 102.5 102.7 116.7 77.3 116.7 77.3 102.5 55.2 102.5 55.2 116.7 29.8 116.7 29.8 80.7 53.1 63.3" class="st1"/></g></g></svg>