<svg xmlns="http://www.w3.org/2000/svg" xmlns:xlink="http://www.w3.org/1999/xlink" id="Layer_1" x="0" y="0" version="1.1" viewBox="0 0 180 180" xml:space="preserve" style="enable-background:new 0 0 180 180"><style type="text/css">.st0{fill:#b63c41}.st1{fill:#040000}.st2{stroke-width:2;stroke-miterlimit:9.9999}.st2,.st3,.st4{fill:#b63c41;stroke:#231815}.st3{stroke-width:2.4983;stroke-miterlimit:9.9933}.st4{stroke-width:2.5;stroke-miterlimit:10}</style><title>delta</title><g><g id="Layer_1-2"><path d="M111.1,102.3l0.3-0.2h-40l0.3,0.2c-23.2,9.8-35.7,35-29.5,59.3h98.3C146.9,137.3,134.3,112.1,111.1,102.3z" class="st0"/><path d="M112.7,101.3l0.2-0.1l-6,0.4l-0.5,0.3l2.7,1.1c22.1,9.3,34.3,33.1,28.9,56.5H42c-5.4-23.3,6.8-47.2,28.9-56.5 l2.7-1.1l-0.3-0.2l-6.2-0.5l0.2,0.1c-22.4,10.8-34,35.9-27.9,60l0.3,1.1h100.7l0.3-1.1C146.8,137.2,135.1,112.1,112.7,101.3z" class="st1"/><rect width="43.5" height="14.3" x="92.6" y="62.4" class="st2" transform="matrix(0.3221 -0.9467 0.9467 0.3221 11.7144 155.4397)"/><rect width="14.3" height="43.5" x="56.9" y="48" class="st3" transform="matrix(0.9507 -0.3102 0.3102 0.9507 -18.4771 23.3143)"/><rect width="28.6" height="43.5" x="75.1" y="45.1" class="st4"/><rect width="60" height="12.2" x="59" y="88.7" class="st4"/></g></g></svg>